<svg xmlns="http://www.w3.org/2000/svg" width="376" height="298" fill="none">
  <path fill="url(#a)" d="M108.349 0c-11.565 0-21.966 5.016-29.18 13.007L65.37 29.62c-1.723 2.07-2.76 4.813-2.76 7.726 0 3.19.964 6.204 2.989 8.343l90.068 90.751c2.147 2.207 5.366 3.409 8.675 3.409 6.533 0 11.83-5.336 11.83-11.919V11.919c0-6.583-5.297-11.919-11.83-11.919h-55.992Z"/>
  <path fill="url(#b)" d="M9.115 97.338C3.608 104.17.308 112.881.308 122.368c0 9.181 3.09 17.634 8.28 24.362l147.078 147.029c2.147 2.206 5.366 3.42 8.675 3.42 6.533 0 11.83-5.336 11.83-11.919v-88.994c0-3.454-1.22-6.853-3.549-9.03L52.586 66.291c-2.146-2.206-5.2-3.518-8.51-3.518-3.309 0-6.74.972-8.888 3.179L9.115 97.338Z"/>
  <path fill="url(#c)" d="M296.83 13.007C289.617 5.017 279.215 0 267.651 0h-55.992c-6.534 0-11.83 5.336-11.83 11.919V127.93c0 6.583 5.296 11.919 11.83 11.919 3.309 0 6.528-1.202 8.674-3.409l90.069-90.75c2.025-2.14 2.989-5.154 2.989-8.344 0-2.913-1.037-5.655-2.76-7.726L296.83 13.007Z"/>
  <path fill="url(#d)" d="M375.692 122.368c0-9.487-3.3-18.198-8.807-25.03l-26.073-31.386c-2.147-2.207-5.579-3.179-8.888-3.179-3.31 0-6.364 1.312-8.511 3.518L203.378 187.236c-2.329 2.177-3.549 5.576-3.549 9.03v88.994c0 6.583 5.296 11.919 11.83 11.919 3.309 0 6.528-1.214 8.674-3.42L367.412 146.73c5.19-6.728 8.28-15.181 8.28-24.362Z"/>
  <defs>
    <linearGradient id="a" x1="322.066" x2="117.427" y1="45.689" y2="253.522" gradientUnits="userSpaceOnUse">
      <stop stop-color="#FFFF80"/>
      <stop offset=".997" stop-color="#20FFFF"/>
    </linearGradient>
    <linearGradient id="b" x1="322.066" x2="117.427" y1="45.689" y2="253.522" gradientUnits="userSpaceOnUse">
      <stop stop-color="#FFFF80"/>
      <stop offset=".997" stop-color="#20FFFF"/>
    </linearGradient>
    <linearGradient id="c" x1="322.066" x2="117.427" y1="45.689" y2="253.522" gradientUnits="userSpaceOnUse">
      <stop stop-color="#FFFF80"/>
      <stop offset=".997" stop-color="#20FFFF"/>
    </linearGradient>
    <linearGradient id="d" x1="322.066" x2="117.427" y1="45.689" y2="253.522" gradientUnits="userSpaceOnUse">
      <stop stop-color="#FFFF80"/>
      <stop offset=".997" stop-color="#20FFFF"/>
    </linearGradient>
  </defs>
</svg>
